<mxfile host="app.diagrams.net" agent="Mozilla/5.0 (X11; Linux x86_64; rv:131.0) Gecko/20100101 Firefox/131.0" version="24.9.1">
  <diagram name="Seite-1" id="16ZDAB5GPZ33JYrLCA9-">
    <mxGraphModel dx="1273" dy="896" grid="1" gridSize="10" guides="1" tooltips="1" connect="1" arrows="1" fold="1" page="1" pageScale="1" pageWidth="827" pageHeight="1169" math="0" shadow="0">
      <root>
        <mxCell id="0" />
        <mxCell id="1" parent="0" />
        <mxCell id="0IMYz3kWrYP8GC6NdBTO-1" value="" style="rounded=0;whiteSpace=wrap;html=1;fillColor=#a0522d;fontColor=#ffffff;strokeColor=#6D1F00;" vertex="1" parent="1">
          <mxGeometry x="80" y="20" width="820" height="80" as="geometry" />
        </mxCell>
        <mxCell id="0IMYz3kWrYP8GC6NdBTO-2" value="" style="rounded=0;whiteSpace=wrap;html=1;fillColor=#dae8fc;strokeColor=#6c8ebf;" vertex="1" parent="1">
          <mxGeometry x="170" y="100" width="510" height="20" as="geometry" />
        </mxCell>
        <mxCell id="0IMYz3kWrYP8GC6NdBTO-3" value="" style="rounded=0;whiteSpace=wrap;html=1;fillColor=#dae8fc;strokeColor=#6c8ebf;" vertex="1" parent="1">
          <mxGeometry x="170" y="120" width="490" height="20" as="geometry" />
        </mxCell>
        <mxCell id="0IMYz3kWrYP8GC6NdBTO-4" value="" style="rounded=0;whiteSpace=wrap;html=1;rotation=-90;fillColor=#dae8fc;strokeColor=#6c8ebf;" vertex="1" parent="1">
          <mxGeometry x="555" y="225" width="229.99" height="20" as="geometry" />
        </mxCell>
        <mxCell id="0IMYz3kWrYP8GC6NdBTO-5" value="" style="whiteSpace=wrap;html=1;aspect=fixed;" vertex="1" parent="1">
          <mxGeometry x="680" y="210" width="120" height="120" as="geometry" />
        </mxCell>
        <mxCell id="0IMYz3kWrYP8GC6NdBTO-6" value="" style="ellipse;whiteSpace=wrap;html=1;aspect=fixed;" vertex="1" parent="1">
          <mxGeometry x="700" y="130" width="80" height="80" as="geometry" />
        </mxCell>
        <mxCell id="0IMYz3kWrYP8GC6NdBTO-7" value="" style="ellipse;whiteSpace=wrap;html=1;aspect=fixed;" vertex="1" parent="1">
          <mxGeometry x="700" y="230" width="80" height="80" as="geometry" />
        </mxCell>
        <mxCell id="0IMYz3kWrYP8GC6NdBTO-8" value="" style="rounded=0;whiteSpace=wrap;html=1;fillColor=#fff2cc;strokeColor=#d6b656;" vertex="1" parent="1">
          <mxGeometry x="680" y="100" width="120" height="30" as="geometry" />
        </mxCell>
        <mxCell id="0IMYz3kWrYP8GC6NdBTO-9" value="" style="endArrow=none;html=1;rounded=0;" edge="1" parent="1">
          <mxGeometry width="50" height="50" relative="1" as="geometry">
            <mxPoint x="810" y="210" as="sourcePoint" />
            <mxPoint x="810" y="100" as="targetPoint" />
          </mxGeometry>
        </mxCell>
        <mxCell id="0IMYz3kWrYP8GC6NdBTO-10" value="0,26" style="edgeLabel;html=1;align=center;verticalAlign=middle;resizable=0;points=[];" vertex="1" connectable="0" parent="0IMYz3kWrYP8GC6NdBTO-9">
          <mxGeometry x="0.41" y="-2" relative="1" as="geometry">
            <mxPoint as="offset" />
          </mxGeometry>
        </mxCell>
        <mxCell id="0IMYz3kWrYP8GC6NdBTO-11" value="" style="endArrow=none;html=1;rounded=0;" edge="1" parent="1">
          <mxGeometry width="50" height="50" relative="1" as="geometry">
            <mxPoint x="840" y="130" as="sourcePoint" />
            <mxPoint x="840" y="100" as="targetPoint" />
          </mxGeometry>
        </mxCell>
        <mxCell id="0IMYz3kWrYP8GC6NdBTO-12" value="0,06" style="edgeLabel;html=1;align=center;verticalAlign=middle;resizable=0;points=[];" vertex="1" connectable="0" parent="0IMYz3kWrYP8GC6NdBTO-11">
          <mxGeometry x="0.41" y="-2" relative="1" as="geometry">
            <mxPoint as="offset" />
          </mxGeometry>
        </mxCell>
        <mxCell id="0IMYz3kWrYP8GC6NdBTO-13" value="" style="endArrow=none;html=1;rounded=0;" edge="1" parent="1">
          <mxGeometry width="50" height="50" relative="1" as="geometry">
            <mxPoint x="826" y="210" as="sourcePoint" />
            <mxPoint x="826" y="120" as="targetPoint" />
          </mxGeometry>
        </mxCell>
        <mxCell id="0IMYz3kWrYP8GC6NdBTO-14" value="0,20" style="edgeLabel;html=1;align=center;verticalAlign=middle;resizable=0;points=[];" vertex="1" connectable="0" parent="0IMYz3kWrYP8GC6NdBTO-13">
          <mxGeometry x="0.41" y="-2" relative="1" as="geometry">
            <mxPoint as="offset" />
          </mxGeometry>
        </mxCell>
        <mxCell id="0IMYz3kWrYP8GC6NdBTO-15" value="" style="endArrow=none;html=1;rounded=0;" edge="1" parent="1">
          <mxGeometry width="50" height="50" relative="1" as="geometry">
            <mxPoint x="820" y="330" as="sourcePoint" />
            <mxPoint x="820" y="210" as="targetPoint" />
          </mxGeometry>
        </mxCell>
        <mxCell id="0IMYz3kWrYP8GC6NdBTO-16" value="0,40" style="edgeLabel;html=1;align=center;verticalAlign=middle;resizable=0;points=[];" vertex="1" connectable="0" parent="0IMYz3kWrYP8GC6NdBTO-15">
          <mxGeometry x="0.41" y="-2" relative="1" as="geometry">
            <mxPoint as="offset" />
          </mxGeometry>
        </mxCell>
        <mxCell id="0IMYz3kWrYP8GC6NdBTO-17" value="" style="endArrow=none;html=1;rounded=0;" edge="1" parent="1">
          <mxGeometry width="50" height="50" relative="1" as="geometry">
            <mxPoint x="640" y="210" as="sourcePoint" />
            <mxPoint x="640" y="140" as="targetPoint" />
          </mxGeometry>
        </mxCell>
        <mxCell id="0IMYz3kWrYP8GC6NdBTO-18" value="0,15" style="edgeLabel;html=1;align=center;verticalAlign=middle;resizable=0;points=[];" vertex="1" connectable="0" parent="0IMYz3kWrYP8GC6NdBTO-17">
          <mxGeometry x="0.41" y="-2" relative="1" as="geometry">
            <mxPoint as="offset" />
          </mxGeometry>
        </mxCell>
        <mxCell id="0IMYz3kWrYP8GC6NdBTO-19" value="" style="rounded=0;whiteSpace=wrap;html=1;fillColor=#fff2cc;strokeColor=#d6b656;" vertex="1" parent="1">
          <mxGeometry x="680" y="330" width="120" height="20" as="geometry" />
        </mxCell>
      </root>
    </mxGraphModel>
  </diagram>
</mxfile>
